<svg xmlns="http://www.w3.org/2000/svg" viewBox="0 0 1024 1024"><path d="M544 200h-61.9c-3.3 0-6.5 2.7-6.5 6.5v118.2c-33.8 4.6-61.5 14.2-84.3 29.1-30.3 19.7-53.4 47.9-53.4 90.5 0 35.3 13.4 63.6 40.2 84.9 26.8 21.3 65.6 38.2 116.3 50.6 42.5 10.5 72.3 23.3 89.6 38.5 17.3 15.2 25.9 34.1 25.9 56.7 0 24.9-10.6 44.7-31.8 59.2-21.2 14.6-50.7 21.8-88.4 21.8-24.4 0-51.5-4.5-81.2-13.4-29.7-8.9-55.1-21.2-76.1-36.9-3.3-2.5-8-1.7-10.2 1.8l-31.5 50.3c-2.1 3.4-1.1 7.8 2.2 10 25.8 17.8 55.8 31.7 90 41.7 27.5 8.1 56.1 13 85.5 14.6v114.7c0 3.6 2.7 6.5 6.5 6.5H544c3.6 0 6.5-2.7 6.5-6.5V753.4c38.6-3.8 70.7-15 95.9-33.8 33.4-24.8 50.2-59.5 50.2-103.8 0-37.2-13.1-66.8-39.2-88.6-26.1-21.8-65.5-39.4-118.2-52.7-41.8-10.7-71.6-23.8-89.4-39.3-17.9-15.5-26.8-33.8-26.8-54.8 0-22.2 9.5-39.7 28.6-52.3 19.1-12.7 45.5-19 79.3-19 22.3 0 46.7 3.6 73.3 10.8 26.6 7.2 49 16.7 67.2 28.5 3.4 2.2 8 1.1 10.1-2.3l30-50.8c2.1-3.5 1-8-2.5-10.1-21.4-14-47.5-25.2-78.2-33.7-23.1-6.4-47.1-10.4-71.8-12.1V206.5c0-3.6-2.9-6.5-6.5-6.5z"/></svg>
